<svg width="196" height="38" viewBox="0 0 196 38" fill="none" xmlns="http://www.w3.org/2000/svg">
<path d="M29.051 0.794006V8.05501H19.193V38H10.13V8.05501H0.271973V0.794006H29.051Z" fill="#FFFBFB"/>
<path d="M52.5735 38L44.8354 23.955H42.6624V38H33.5994V0.794006H48.8105C51.7431 0.794006 54.2341 1.30634 56.2835 2.33101C58.3681 3.35567 59.9228 4.769 60.9474 6.571C61.9721 8.33767 62.4845 10.3163 62.4845 12.507C62.4845 14.9803 61.7778 17.1887 60.3645 19.132C58.9865 21.0753 56.9371 22.4533 54.2165 23.266L62.8025 38H52.5735ZM42.6624 17.542H48.2804C49.9411 17.542 51.1778 17.1357 51.9905 16.323C52.8385 15.5103 53.2625 14.362 53.2625 12.878C53.2625 11.4647 52.8385 10.3517 51.9905 9.53901C51.1778 8.72634 49.9411 8.32001 48.2804 8.32001H42.6624V17.542Z" fill="#FFFBFB"/>
<path d="M91.3347 31.428H77.4487L75.2227 38H65.7357L79.1977 0.794006H89.6917L103.154 38H93.5607L91.3347 31.428ZM89.0027 24.432L84.3917 10.811L79.8337 24.432H89.0027Z" fill="#FFFBFB"/>
<path d="M142.178 0.794006L128.981 38H117.639L104.442 0.794006H114.088L123.31 28.884L132.585 0.794006H142.178Z" fill="#FFFBFB"/>
<path d="M155.029 8.05501V15.581H167.166V22.577H155.029V30.739H168.756V38H145.966V0.794006H168.756V8.05501H155.029Z" fill="#FFFBFB"/>
<path d="M183.702 31.004H195.574V38H174.639V0.794006H183.702V31.004Z" fill="#FFFBFB"/>
</svg>
