<svg width="50" height="50" viewBox="0 0 50 50" fill="none" xmlns="http://www.w3.org/2000/svg">
<path d="M33.7319 31.1456C33.0406 31.1453 32.3564 31.2852 31.7206 31.5568C31.0849 31.8283 30.5108 32.2259 30.033 32.7256L18.1633 26.0473C18.3932 25.1838 18.3932 24.2753 18.1633 23.4119L30.033 16.7335C30.8974 17.6297 32.0588 18.1799 33.2997 18.2812C34.5406 18.3824 35.7758 18.0278 36.774 17.2837C37.7722 16.5396 38.4649 15.457 38.7222 14.2389C38.9795 13.0207 38.7839 11.7506 38.1719 10.6663C37.5599 9.58204 36.5737 8.75811 35.3978 8.34885C34.222 7.9396 32.9373 7.9731 31.7843 8.44308C30.6314 8.91306 29.6894 9.78728 29.1348 10.902C28.5802 12.0166 28.451 13.2953 28.7715 14.4984L16.9018 21.1767C16.1927 20.4374 15.2788 19.9272 14.2774 19.7116C13.276 19.4961 12.233 19.5851 11.2827 19.9672C10.3323 20.3493 9.51795 21.007 8.94444 21.8557C8.37092 22.7044 8.06445 23.7052 8.06445 24.7296C8.06445 25.7539 8.37092 26.7548 8.94444 27.6035C9.51795 28.4522 10.3323 29.1099 11.2827 29.4919C12.233 29.874 13.276 29.963 14.2774 29.7475C15.2788 29.5319 16.1927 29.0217 16.9018 28.2824L28.7715 34.9608C28.4963 35.9968 28.5524 37.0931 28.9319 38.0957C29.3114 39.0983 29.9953 39.9569 30.8877 40.551C31.78 41.1451 32.836 41.4449 33.9073 41.4083C34.9787 41.3717 36.0118 41.0006 36.8615 40.3471C37.7113 39.6935 38.3351 38.7903 38.6454 37.7642C38.9557 36.7381 38.9369 35.6405 38.5917 34.6256C38.2465 33.6107 37.5922 32.7293 36.7206 32.1052C35.849 31.4811 34.8039 31.1455 33.7319 31.1456Z" fill="white"/>
<rect x="1" y="1" width="48" height="48" stroke="white" stroke-width="2"/>
</svg>
