<svg width="45" height="45" viewBox="0 0 45 45" fill="none" xmlns="http://www.w3.org/2000/svg">
<path d="M45 0H0V45H45V0Z" fill="#BD081C"/>
<path d="M22.522 6.77209C13.8235 6.77209 6.77197 13.8236 6.77197 22.5221C6.77197 29.1947 10.9237 34.8971 16.7822 37.1921C16.6445 35.946 16.5203 34.0295 16.8371 32.6691C17.1233 31.4402 18.6821 24.8391 18.6821 24.8391C18.6821 24.8391 18.211 23.8941 18.211 22.4991C18.211 20.309 19.4804 18.6741 21.0608 18.6741C22.4045 18.6741 23.0534 19.683 23.0534 20.8931C23.0534 22.2431 22.193 24.2645 21.7484 26.1369C21.3772 27.7047 22.5346 28.9832 24.0808 28.9832C26.8798 28.9832 29.0308 26.0312 29.0308 21.7706C29.0308 17.9996 26.3209 15.363 22.4518 15.363C17.9707 15.363 15.3418 18.7241 15.3418 22.1981C15.3418 23.5517 15.8633 25.0034 16.5118 25.7922C16.6405 25.9484 16.6594 26.0852 16.6211 26.2422C16.5014 26.7399 16.2359 27.8096 16.1837 28.0283C16.1149 28.3167 15.9551 28.3779 15.6568 28.2393C13.6898 27.3236 12.4618 24.4476 12.4618 22.1373C12.4618 17.1693 16.0717 12.6063 22.8685 12.6063C28.3342 12.6122 32.5799 16.5056 32.5799 21.7089C32.5799 27.135 29.1599 31.5054 24.4075 31.5054C22.8113 31.5054 21.311 30.6761 20.7976 29.6969C20.7976 29.6969 20.0078 32.7038 19.8161 33.4409C19.4606 34.8089 18.5008 36.5238 17.8586 37.5696C19.369 38.0366 20.9411 38.2734 22.522 38.2721C31.2205 38.2721 38.272 31.2206 38.272 22.5221C38.272 13.8236 31.2205 6.77209 22.522 6.77209Z" fill="white"/>
</svg>
