<svg width="27" height="27" viewBox="0 0 27 27" fill="none" xmlns="http://www.w3.org/2000/svg">
<g clip-path="url(#clip0)">
<path opacity="0.8" d="M4.41509 0C1.96913 0 0 1.9691 0 4.41503V22.0754C0 24.5214 1.96913 26.4906 4.41509 26.4906H22.0755C24.5214 26.4906 26.4906 24.5214 26.4906 22.0754V4.41503C26.4906 1.9691 24.5214 0 22.0755 0H4.41509ZM14.8169 4.96693H17.3844V7.73073H15.5455C15.1292 7.73073 14.5862 7.86551 14.5862 8.76552V10.7489H17.3844L16.9727 13.7433H14.5862V21.5235H11.5939V13.7433H9.10613V10.7489H11.5939V8.18562C11.5939 6.42598 13.0572 4.96693 14.8169 4.96693Z" fill="white"/>
</g>
<defs>
<clipPath id="clip0">
<rect width="26.4906" height="26.4906" fill="white"/>
</clipPath>
</defs>
</svg>
