<svg width="27" height="27" viewBox="0 0 27 27" fill="none" xmlns="http://www.w3.org/2000/svg">
<g clip-path="url(#clip0)">
<path opacity="0.8" d="M4.66998 0C2.22401 0 0.254883 1.9691 0.254883 4.41503V22.0754C0.254883 24.5214 2.22401 26.4906 4.66998 26.4906H22.3304C24.7763 26.4906 26.7454 24.5214 26.7454 22.0754V4.41503C26.7454 1.9691 24.7763 0 22.3304 0H4.66998ZM8.33054 4.96693H18.6698C20.3713 4.96693 21.7785 6.37413 21.7785 8.07562V18.4148C21.7785 20.1163 20.3713 21.5235 18.6698 21.5235H8.33054C6.62904 21.5235 5.22186 20.1163 5.22186 18.4148V8.07562C5.22186 6.37413 6.62904 4.96693 8.33054 4.96693ZM8.33054 7.03651C7.73952 7.03651 7.29144 7.48461 7.29144 8.07562V18.4148C7.29144 19.0059 7.7395 19.454 8.33054 19.454H18.6698C19.2608 19.454 19.711 19.0059 19.711 18.4148V8.07562C19.711 7.48461 19.2608 7.03651 18.6698 7.03651H8.33054ZM17.6393 8.07346C17.9134 8.07339 18.1763 8.18209 18.3703 8.37569C18.5643 8.5693 18.6736 8.83199 18.6741 9.10608C18.6741 9.24198 18.6474 9.37658 18.5954 9.50215C18.5434 9.62771 18.4672 9.74177 18.3711 9.83787C18.275 9.93396 18.1609 10.0102 18.0354 10.0622C17.9098 10.1142 17.7752 10.1409 17.6393 10.1409C17.5034 10.1409 17.3688 10.1142 17.2433 10.0622C17.1177 10.0102 17.0036 9.93396 16.9075 9.83787C16.8114 9.74177 16.7352 9.62771 16.6832 9.50215C16.6312 9.37658 16.6045 9.24198 16.6045 9.10608C16.605 8.83199 16.7143 8.5693 16.9083 8.37569C17.1023 8.18209 17.3652 8.07339 17.6393 8.07346ZM13.5002 9.10608C15.7733 9.10608 17.6393 10.972 17.6393 13.2452C17.6393 15.5184 15.7733 17.3844 13.5002 17.3844C11.227 17.3844 9.36101 15.5184 9.36101 13.2452C9.36101 10.972 11.227 9.10608 13.5002 9.10608ZM13.5002 11.1735C12.3452 11.1735 11.4306 12.0902 11.4306 13.2452C11.4306 14.4002 12.3452 15.3148 13.5002 15.3148C14.6551 15.3148 15.5697 14.4002 15.5697 13.2452C15.5697 12.0902 14.6551 11.1735 13.5002 11.1735Z" fill="white"/>
</g>
<defs>
<clipPath id="clip0">
<rect x="0.254883" width="26.4906" height="26.4906" fill="white"/>
</clipPath>
</defs>
</svg>
