<svg width="27" height="26" viewBox="0 0 27 26" fill="none" xmlns="http://www.w3.org/2000/svg">
<g clip-path="url(#clip0)">
<path opacity="0.8" d="M4.41509 0C1.96913 0 0 1.9121 0 4.28723V21.4364C0 23.8115 1.96913 25.7237 4.41509 25.7237H22.0754C24.5214 25.7237 26.4905 23.8115 26.4905 21.4364V4.28723C26.4905 1.9121 24.5214 0 22.0754 0H4.41509ZM13.3983 4.82525C13.7309 4.81715 14.0741 4.82589 14.4288 4.85368C17.0457 5.05056 19.1947 6.93154 19.5769 9.39843C19.9392 11.7383 18.8328 15.0876 16.3195 16.0681C13.3936 17.2094 12.1803 15.2683 12.1803 15.2683C12.1803 15.2683 11.797 16.8634 11.4883 17.9835C11.287 18.714 10.5406 19.8369 10.0547 20.5353C9.70341 21.0401 9.57433 21.0434 9.49632 20.4243C9.29784 18.8488 9.4886 17.7103 9.60195 17.257C9.73192 16.7363 10.8243 12.191 10.8243 12.191C9.99713 10.7296 10.8188 8.06609 12.5705 8.41869C14.4546 8.79786 13.3907 11.1807 13.0232 12.2516C12.6556 13.3226 12.593 14.2436 13.7648 14.7345C14.9366 15.2253 17.225 14.2466 17.2939 9.94053C17.3629 5.63442 11.3294 5.52004 9.53727 8.15277C7.71487 10.7672 9.27139 12.6111 9.34756 12.6766C9.51572 12.8212 9.48901 12.9914 9.46398 13.089L9.25487 13.9055C9.24119 13.9585 9.13323 14.3403 8.59087 14.0521C8.17548 13.8313 7.57494 13.4329 7.14864 12.4464C5.94319 8.85645 8.40944 4.94915 13.3983 4.82649L13.3983 4.82525Z" fill="white"/>
</g>
<defs>
<clipPath id="clip0">
<rect width="26.4905" height="25.7237" fill="white"/>
</clipPath>
</defs>
</svg>
