<svg width="27" height="27" viewBox="0 0 27 27" fill="none" xmlns="http://www.w3.org/2000/svg">
<path d="M23.944 9.31023L17.2493 8.33728L14.2567 2.27019C14.1749 2.10407 14.0404 1.9696 13.8743 1.88786C13.4577 1.6822 12.9515 1.85359 12.7432 2.27019L9.7505 8.33728L3.05588 9.31023C2.87131 9.3366 2.70256 9.42361 2.57336 9.55544C2.41716 9.71598 2.33109 9.93197 2.33406 10.1559C2.33703 10.3799 2.42879 10.5935 2.58918 10.7499L7.43283 15.4722L6.28849 22.1405C6.26166 22.2956 6.27882 22.4552 6.33804 22.601C6.39726 22.7469 6.49617 22.8732 6.62354 22.9657C6.75091 23.0582 6.90165 23.1132 7.05868 23.1244C7.2157 23.1356 7.37272 23.1026 7.51193 23.0291L13.4999 19.8808L19.4879 23.0291C19.6514 23.1161 19.8412 23.1451 20.0232 23.1135C20.482 23.0343 20.7904 22.5993 20.7113 22.1405L19.567 15.4722L24.4107 10.7499C24.5425 10.6207 24.6295 10.4519 24.6559 10.2674C24.7271 9.80593 24.4054 9.37878 23.944 9.31023Z" fill="#CEB700"/>
</svg>
